<?xml version="1.0" standalone="no"?><!DOCTYPE svg PUBLIC "-//W3C//DTD SVG 1.1//EN" "http://www.w3.org/Graphics/SVG/1.1/DTD/svg11.dtd"><svg width="1024" height="1024" viewBox="0 0 1024 1024" version="1.1" xmlns="http://www.w3.org/2000/svg" xmlns:xlink="http://www.w3.org/1999/xlink"><path d="M905.846154 0 118.153846 0C52.932923 0 0 52.854154 0 118.114462l0 787.771077C0 971.067077 52.932923 1024 118.153846 1024l787.692308 0c65.220923 0 118.153846-52.932923 118.153846-118.114462L1024 118.114462C1024 52.854154 971.067077 0 905.846154 0zM945.230769 905.885538C945.230769 927.586462 927.547077 945.230769 905.846154 945.230769L118.153846 945.230769c-21.700923 0-39.384615-17.644308-39.384615-39.345231L78.769231 118.468923l866.461538 0L945.230769 905.885538zM788.873846 394.555077 235.559385 394.555077 235.559385 232.644923 788.873846 232.644923 788.873846 394.555077zM392.467692 826.368 235.559385 826.368 235.559385 512l156.868923 0L392.428308 826.368zM788.873846 826.368l-276.637538 0L512.236308 512l276.637538 0L788.873846 826.368z" fill="#ffffff"></path></svg>