<?xml version="1.0" standalone="no"?><!DOCTYPE svg PUBLIC "-//W3C//DTD SVG 1.1//EN" "http://www.w3.org/Graphics/SVG/1.1/DTD/svg11.dtd"><svg width="1024" height="1024" viewBox="0 0 1024 1024" version="1.1" xmlns="http://www.w3.org/2000/svg" xmlns:xlink="http://www.w3.org/1999/xlink"><path d="M128 128 896 128 896 896 128 896 128 128ZM64 64 64 960 960 960 960 64 64 64ZM288 192 288 224 352 224 352 192 288 192ZM416 192 416 224 480 224 480 192 416 192ZM544 192 544 224 608 224 608 192 544 192ZM672 192 672 224 736 224 736 192 672 192ZM800 192 800 224 832 224 832 192 800 192ZM800 288 800 352 832 352 832 288 800 288ZM800 416 800 480 832 480 832 416 800 416ZM800 544 800 608 832 608 832 544 800 544ZM800 672 800 736 832 736 832 672 800 672ZM800 800 800 832 832 832 832 800 800 800ZM672 800 672 832 736 832 736 800 672 800ZM544 800 544 832 608 832 608 800 544 800ZM416 800 416 832 480 832 480 800 416 800ZM288 800 288 832 352 832 352 800 288 800ZM192 800 192 832 224 832 224 800 192 800ZM192 672 192 736 224 736 224 672 192 672ZM192 544 192 608 224 608 224 544 192 544ZM192 416 192 480 224 480 224 416 192 416ZM192 288 192 352 224 352 224 288 192 288ZM192 192 192 224 224 224 224 192 192 192Z" fill="#fff"></path></svg>